# xmcd CD database file
#
# Track frame offsets:
#	150
#	15420
#	24364
#	37481
#	49981
#	61355
#	72699
#	82349
#	95445
#	105412
#	119382
#	134241
#	147660
#	161194
#	173869
#	186238
#	197428
#
# Disc length: 2784 seconds
#
# Revision: 0
# Processed by: cddbd v1.5.2PL0 Copyright (c) Steve Scherf et al.
# Submitted via: CDex 1.70beta2
#
DISCID=080ade11
DTITLE=Various Artist - Country Roots - CD 5
DYEAR=2007
DGENRE=Country Classics
TTITLE0=The Carter Family - Fond Affection
TTITLE1=Gene Autry - Gaucho Serenade
TTITLE2=The Carter Family - John Hardy
TTITLE3=Kitty Wells And Red Foley - You And Me
TTITLE4=Hank Williams - Nobody's Lonesome For Me
TTITLE5=Gene Autry - Rhythm Of The Range
TTITLE6=Bill Haley - Rovin' Eyes
TTITLE7=Tex Williams - Smoke Smoke Smoke
TTITLE8=Red Foley - Crazy Little Guitar Man
TTITLE9=The Carter Family - No More The Moon Shines On Lorena
TTITLE10=Bob Willis - San Antonio Rose
TTITLE11=Roy Acuff - It Won't Be Long (Till I'll Be Leaving)
TTITLE12=Red Foley - Old Pappy's New Banjo
TTITLE13=Gene Autry - Blue Yodel No.5
TTITLE14=Hank Williams - I Could Never Be Ashamed Of You
TTITLE15=Bill Haley - Sundown Boogie
TTITLE16=Merle Travis - Sixteen Tons
EXTD=YEAR: 2007
EXTT0=
EXTT1=
EXTT2=
EXTT3=
EXTT4=
EXTT5=
EXTT6=
EXTT7=
EXTT8=
EXTT9=
EXTT10=
EXTT11=
EXTT12=
EXTT13=
EXTT14=
EXTT15=
EXTT16=
PLAYORDER=
